<svg viewBox="0 0 512 512" xmlns="http://www.w3.org/2000/svg"><path d="m345.6 64c-82.69 0-166.4 22-166.4 64v231l5.21 3.84c28.45 21 90.22 34 161.19 34s132.74-13 161.19-34l5.21-3.84v-231c0-42-83.71-64-166.4-64zm140.8 230.2c-31.51 16.01-84.4 25.8-140.8 25.8s-109.29-9.79-140.8-25.8v-23.07c35.43 14.74 86.11 23.27 140.8 23.27s105.4-8.53 140.8-23.27zm0-51.2c-31.51 16-84.43 25.8-140.8 25.8s-109.29-9.8-140.8-25.8v-23.07c35.43 14.74 86.11 23.27 140.8 23.27s105.4-8.53 140.8-23.27zm0-51.2c-31.51 16-84.43 25.8-140.8 25.8s-109.29-9.79-140.8-25.8v-28c31.09 18.6 86.2 28.2 140.8 28.2s109.71-9.6 140.8-28.23zm-140.8 179.4c-67.91 0-118-12.37-140.8-25.61v-23.26c35.43 14.74 86.11 23.27 140.8 23.27s105.4-8.53 140.8-23.27v23.26c-22.77 13.24-72.89 25.61-140.8 25.61z" fill="#ea8d28"/><g fill="#ffa840"><path d="m204.8 243c31.51 16 84.43 25.8 140.8 25.8s109.29-9.8 140.8-25.8v-23.07c-35.4 14.74-86.11 23.27-140.8 23.27s-105.36-8.53-140.8-23.27z"/><path d="m486.4 191.8v-28c-31.09 18.6-86.16 28.2-140.8 28.2s-109.71-9.6-140.8-28.23v28c31.51 16 84.43 25.8 140.8 25.8s109.29-9.76 140.8-25.77z"/><path d="m204.8 345.59c22.77 13.24 72.89 25.61 140.8 25.61s118-12.37 140.8-25.61v-23.26c-35.4 14.74-86.11 23.27-140.8 23.27s-105.36-8.53-140.8-23.27z"/><path d="m204.8 294.2c31.51 16 84.43 25.8 140.8 25.8s109.29-9.79 140.8-25.8v-23.07c-35.4 14.74-86.11 23.27-140.8 23.27s-105.36-8.53-140.8-23.27z"/><circle cx="166.4" cy="281.6" r="166.4"/></g><path d="m173.68 204.8c5.22 0 6.9 1.68 6.9 6.71v7.65c15.1 2.61 25.73 10.62 32.06 24.23 2.8 5.22 1.49 8-4.29 10.44l-12.86 5.78c-5 2.24-7.46 1.49-10.26-3.73-3.73-7.27-8.57-10.81-18.82-10.81-13.23 0-18.83 2.8-18.83 10.81 0 6.9 7.83 9.51 22.18 11a130 130 0 0 1 21.24 3.53 36.41 36.41 0 0 1 10.07 4.29c8.39 5 16.4 14.72 15.66 30.76 0 19.95-13.05 33.74-36.17 38v8c0 5.22-1.68 6.9-6.9 6.9h-14.15c-5 0-6.9-1.68-6.9-6.9v-7.64c-18.27-2.8-30.2-11.93-36-27.22q-2.52-7.27 5-10.06l12.68-4.48c5.41-2 8-.93 10.44 4.48 3 7.64 9.88 11.37 20.51 11.37 14.17 0 21.25-3.92 21.25-11.94 0-7.45-7.27-9.88-22-11.37-10.44-1.31-15.85-1.87-25.36-5.59a32.36 32.36 0 0 1 -11.55-6.53c-5.72-4.98-10.58-14.48-10.58-26.6 0-19.58 12.49-33 35.61-36.72v-7.65c0-5 1.86-6.71 6.9-6.71z" fill="#c15d25"/></svg>